<?xml version="1.0" encoding="utf-8"?><svg viewBox="0 0 355 378" xmlns="http://www.w3.org/2000/svg" xmlns:xlink="http://www.w3.org/1999/xlink"><style>:root>svg{display:none}:root>svg:target{display:block}</style><svg version="1.1" id="address" x="0" y="0" viewBox="0 0 355 378" xml:space="preserve" xmlns="http://www.w3.org/2000/svg"><style>.ast0{fill:#fa1f2c}</style><path class="ast0" d="M178.7 27C88.1 27 14.5 100.7 14.5 191.2s73.7 164.2 164.2 164.2 164.2-73.7 164.2-164.2S269.2 27 178.7 27zm-1.3 102.9c32.9-.2 59.7 26.4 59.9 59.5.2 32.9-26.6 59.7-59.6 59.7-33 .1-59.7-26.7-59.7-59.7.1-32.7 26.4-59.2 59.4-59.5z"/></svg><svg viewBox="0 0 355 378" id="basket" xmlns="http://www.w3.org/2000/svg"><path d="M314.8 93c-77.5 0-154.9 0-232.4.1-2.7 0-3.8-.7-4.3-3.4-1.7-9.1-3.5-18.1-5.3-27.2-3.1-15.4-14.3-26.6-30-28.9-10.9-1.6-22-.4-33-.5-7.3-.1-12.6 5-12.7 11.8C-3 51.9 2.4 57 10 57h27c6.8 0 11.2 3.8 12.6 10.5 2 9.9 4 19.8 5.9 29.7C66.7 153.5 77.8 209.7 89.1 266c4 20.1 17.6 31 38 31H309.3c6.2-.3 11.2-5 11.6-11.1.4-5.9-3.6-11.4-9.5-12.6-1.7-.4-3.5-.3-5.2-.3H126.3c-8.3 0-12.3-3.3-13.9-11.5-1.3-6.9-2.5-13.7-4.1-20.5-.7-3-.4-4 3.1-4 31.9.1 63.7.1 95.6.1 31.2 0 62.5.1 93.7 0 18.2 0 32.5-11.9 36-29.8 3.4-17.1 6.9-34.2 10.3-51.3 1.6-8.2 3.7-16.4 4.4-24.6 1.8-21-15.1-38.3-36.6-38.4zm12.2 40.3c-4.5 23-9.1 46-13.7 68.9-1.4 7.2-5.9 10.7-13.6 10.7H106c-2.1 0-3.3-.2-3.8-2.7-5.9-30.2-12-60.4-18.1-90.6-.6-3.1 1-2.8 3-2.8h226.3c10.6.2 15.6 6.2 13.6 16.5zM140.9 309c-6.7.1-12 5.6-11.8 12.3.2 6.5 5.6 11.7 12.1 11.7 6.5-.1 11.8-5.5 11.9-11.9-.1-6.7-5.6-12.2-12.2-12.1zM285.2 309c-6.7-.1-12.2 5.2-12.2 11.9 0 6.5 5.3 11.9 11.7 12.1 6.6.1 12.2-5.3 12.2-11.9.1-6.6-5.2-12-11.7-12.1z"/><path d="M284.5 153h-155c-7.2 0-12.5 5.3-12.5 12.1.1 6.6 5.4 11.7 12.4 11.8h153.9c2.9 0 5.7-.4 8.2-2 4.4-2.9 6.4-8.2 5-13.1-1.6-5.4-6-8.8-12-8.8z"/></svg><svg viewBox="0 0 355 378" id="e-mail" xmlns="http://www.w3.org/2000/svg"><path d="M15.9 327c74.6-.1 149.2 0 223.8 0 33.3 0 66.5.1 99.8 0 25.2-.1 42.3-17.2 42.3-42.3v-99.4-92.6c0-9.3-2.6-17.8-8.3-25.2-8.7-11.2-20.4-16-34.4-16-49.7.1-99.5 0-149.2 0h-174c-14.3 0-26.1 5-35 16.5-4.1 5.2-5.6 11.5-7.8 17.6v207.5c2.3 6 3.8 12.3 7.8 17.6 8.9 11.3 20.6 16.3 35 16.3zM338.3 80.5c-50 50.1-100.1 100.1-150.1 150.1-7.1 7.1-14.5 7.2-21.6.1C116.4 180.5 66.2 130.2 16 80c-.4-.4-.7-.8-1.6-1.7h325.3c.3 1.3-.8 1.6-1.4 2.2zm16.5 203.4c-30.1-30.1-60.6-60.5-90.8-90.7 29.8-29.7 60.2-60.2 90.8-90.7v181.4zM25.3 298c27.7-27.8 55.5-55.5 83.1-83.3 2.1-2.1 3-1.7 4.9.2 11.4 11.6 22.9 23 34.4 34.5 17.6 17.6 41.9 17.6 59.5 0 11.6-11.5 23.2-23.1 34.7-34.7 1.5-1.6 2.4-2.1 4.3-.2 28 28.2 56.2 56.3 84.3 84.4.3.3.4.6 1 1.3H24.2c-.6-1.3.5-1.7 1.1-2.2zM2.7 104.4c29 28.9 57.9 57.9 86.9 86.9 1.7 1.7 2.1 2.6.2 4.5C60.5 225 31.3 254.3 2 283.5c-.5.5-1.1 1-2.2 1.9v-183c1.6 0 2.2 1.3 2.9 2z"/></svg><svg viewBox="0 0 355 378" id="lock" xmlns="http://www.w3.org/2000/svg"><path d="M165.9 12.8c-8.8 1.2-17.4 3.2-25.4 7.1C103.9 37.4 85 66.6 84 107.1c-.4 17.3-.1 34.7-.1 52 0 1.5.5 2.9-2 3.4-19.7 4.2-31.5 18.7-31.6 38.9-.1 41.2-.2 82.5 0 123.7.1 23.6 16.9 39.8 40.4 39.8h173.7c23.4 0 40.2-16.1 40.3-39.6.3-41.4.2-82.7 0-124.1-.1-20.1-12.1-34.7-31.4-38.8-2.3-.5-2.3-1.5-2.3-3.2v-50.7c0-5.5-.3-11-1.1-16.5-4.7-35.5-32.2-67.2-66.6-76.7-5.4-1.5-11.9-3.1-19.7-3.4-12.5 0-17 .8-17.7.9zm-35.5 93.9c.2-23.6 15.1-42.3 37.4-47.4 27.6-6.3 55.7 14.7 56.6 43.1.6 19.2.1 38.4.3 57.6 0 2.5-1.2 2.4-2.9 2.4h-44.1c-14.6 0-29.2-.1-43.8 0-2.5 0-3.5-.3-3.5-3.3.1-17.5-.1-34.9 0-52.4zm134.7 70.5c15.7 0 25.4 9.9 25.5 25.7 0 40.4-.2 80.9.1 121.3.1 15.3-11.3 26.1-25.8 25.9-29.1-.5-58.1-.1-87.2-.1-28.9 0-57.9-.3-86.8.1-14.3.2-25.8-10.6-25.7-25.6.3-40.5.1-81.1.1-121.6 0-15.7 9.8-25.6 25.5-25.6 58.1-.1 116.2-.1 174.3-.1zm-10.6-87c1.1 5.2 1.6 10.4 1.6 15.7 0 17.8 0 35.6.1 53.4 0 2.4-.6 3.2-3 3-3.4-.2-6.9-.2-10.3 0-2.5.2-3.3-.5-3.2-3.1.1-18 .2-36.1 0-54.1-.2-27.6-18.4-51.7-44.8-59.5-35.3-10.5-73.6 14-78.6 50.5-1.6 11.3-.3 22.7-.8 31.8 0 12-.1 21.8 0 31.6 0 2.1-.4 3.1-2.8 2.9-3.9-.2-7.8-.1-11.7 0-1.4 0-2.1-.2-2-1.8.4-21.4-1.1-42.8.8-64.1 3-33.6 31.5-63.5 64.8-68.5 42.8-6.6 80.7 19.7 89.9 62.2z"/><path d="M163 288.8c6.8 3.4 7.8 7.6 7 13.8-.1.5 0 .9 0 1.4v8.3c.1 5.1 3 8.6 7.4 8.6 4.5.1 7.6-3.4 7.6-8.7 0-5.4.1-10.8-.1-16.2-.1-2.5.5-3.7 3-4.7 11.2-4.6 18-16.7 16.2-28.3-2-12.7-11.9-22.3-24.1-23.3-12.8-1-24.1 6.3-28.2 18.1-3.8 11.7.2 25.5 11.2 31zm14.6-34.4c6.7.1 11.9 5.4 11.9 12.1-.1 6.7-5.4 11.9-12.1 11.9-6.7-.1-12-5.5-11.9-12.1.1-6.6 5.5-12 12.1-11.9z"/></svg><svg version="1.1" id="seasons" x="0" y="0" viewBox="0 0 355 378" xml:space="preserve" xmlns="http://www.w3.org/2000/svg"><style>.est1{fill:#ffa043}.est3{fill:#5795de}</style><defs><path id="eSVGID_1_" d="M83.4 79.4h94.3v222.5H83.4z"/></defs><clipPath id="eSVGID_00000096038572659765371050000002150265137213626023_"><use xlink:href="#eSVGID_1_" overflow="visible"/></clipPath><g clip-path="url(#eSVGID_00000096038572659765371050000002150265137213626023_)"><path class="est1" fill="#ffa043" d="M177.5 147.8c-22.6 0-41 18.4-41 41 0 22.5 18.4 40.9 40.9 40.9 22.6 0 41-18.4 41-41 0-22.5-18.3-40.9-40.9-40.9zM171.6 129.8c0 3.7 2.4 6.3 5.8 6.3s5.9-2.6 5.9-6.3v-22.4c0-3.7-2.4-6.3-5.8-6.3s-5.9 2.6-5.9 6.3v22.4zM124.8 188.7c0-3.3-2.6-5.8-6.2-5.8H96c-3.7 0-6.3 2.5-6.2 5.9 0 3.3 2.6 5.8 6.2 5.8h22.6c3.7 0 6.3-2.5 6.2-5.9zM259 182.9h-22.6c-3.7 0-6.3 2.5-6.2 5.9 0 3.3 2.6 5.8 6.2 5.8H259c3.7 0 6.3-2.5 6.2-5.9 0-3.3-2.6-5.8-6.2-5.8zM183.4 247.7c0-3.7-2.5-6.3-5.9-6.2-3.3 0-5.8 2.6-5.8 6.2v22.6c0 3.7 2.5 6.3 5.9 6.2 3.3 0 5.8-2.6 5.8-6.2V259v-11.3zM132.6 225.5c-4.6 4.3-9 8.8-13.4 13.4-1.7 1.7-1.8 4-.7 6.1s2.9 3.2 5.3 3.3c1.3 0 2.6-.3 3.6-1.2 4.5-4.4 9-8.8 13.4-13.4 2-2.1 1.7-5.6-.3-7.7-2.2-2.1-5.8-2.5-7.9-.5zM223 226.1c-2.5-2.4-6-2.4-8.3 0-2.3 2.3-2.3 5.9.1 8.3 4 4.1 8.1 8.2 12.2 12.2 1.2 1.2 2.6 1.8 4.7 1.8 2-.1 3.9-1.3 4.8-3.5 1-2.3.6-4.6-1.2-6.4-4-4.2-8.1-8.3-12.3-12.4zM131.9 151.5c2.5 2.4 6 2.4 8.3.1 2.3-2.3 2.3-5.9-.1-8.3-4-4.1-8.1-8.2-12.2-12.2-1.2-1.2-2.6-1.8-4.7-1.8-2 .1-3.9 1.2-4.8 3.5-1 2.4-.6 4.7 1.3 6.5 4.1 4 8.1 8.1 12.2 12.2zM223 151.5c4.2-4.1 8.3-8.2 12.4-12.4 1.1-1.1 1.7-2.5 1.7-4.1 0-2.3-1.4-4.4-3.5-5.4-2.2-1-4.7-.5-6.5 1.3-4.1 4-8.2 8.1-12.2 12.2-2.4 2.5-2.4 6-.1 8.3 2.2 2.4 5.8 2.5 8.2.1z"/></g><g><defs><path id="eSVGID_00000098919942181921485760000004686762391240378272_" d="M180 96.7h105.6v187.5H180z"/></defs><clipPath id="eSVGID_00000114770456333675851490000001207145587994475686_"><use xlink:href="#eSVGID_00000098919942181921485760000004686762391240378272_" overflow="visible"/></clipPath><g clip-path="url(#eSVGID_00000114770456333675851490000001207145587994475686_)"><path class="est3" d="M229.9 224.9c.1-.1.1-.2.2-.2-.1 0-.1-.1-.2-.1v.3zM236 163.4s0-.1 0 0c0-.1 0-.1 0 0zM186 127.5c-.1 0-.1.1 0 0 0 .1 0 .1 0 0z"/><path class="est3" fill="#5795de" d="M173.9 108.7c.2 5.8 0 11.6 0 17.5 0 .4.3.9-.3 1.3-.5-.3-1-.5-1.5-.8-4.5-2.6-9-5.1-13.5-7.6-3.5-1.9-7.3-.7-8.7 2.8-1.2 3-.1 6 3.1 7.8 6.5 3.7 13.1 7.4 19.6 11.1.9.5 1.4 1.1 1.4 2.2-.1 11.3-.1 22.6 0 33.9 0 1.6-.3 1.6-1.5.8-9.7-5.7-19.5-11.3-29.3-16.9-1-.6-1.3-1.2-1.3-2.3.1-7.4.2-14.7.2-22.1 0-1.9-.2-3.8-1.6-5.2-1.8-1.8-3.9-2.4-6.3-1.6-2.4.9-3.9 2.6-4 5.2-.2 5.5-.2 11-.3 16.4 0 .5.2 1.1-.2 1.7-2.8-1.6-5.5-3.2-8.2-4.7l-9.3-5.4c-3.7-2-7.9-.2-8.9 3.8-.6 2.7.6 5.2 3.4 6.8 5.2 3 10.5 6 15.7 9.1.4.3 1 .4 1.3 1-.6.3-1 .6-1.5.9-4.5 2.6-8.9 5.2-13.4 7.9-2.6 1.6-3.7 4-3.1 6.6 1 4.2 5.3 5.9 9.3 3.6 6.5-3.8 13.1-7.7 19.6-11.6.9-.5 1.5-.6 2.4 0 9.8 5.7 19.7 11.4 29.6 17.1.4.2.9.3 1 .9-10.3 6-20.7 11.9-31 18-.8.5-1.3.1-1.8-.3-6.5-3.8-13-7.6-19.4-11.4-1.6-.9-3.2-1.6-5-1.1-2.6.6-4.1 2.3-4.7 4.9-.5 2.3.7 4.8 3.1 6.2 4.6 2.8 9.2 5.5 13.8 8.2.4.2 1 .3 1.1 1l-1.5.9c-5.2 3-10.5 6-15.7 9.1-2.7 1.6-3.9 4.1-3.2 6.7 1 4.1 5.3 5.8 9.2 3.6 5.4-3.1 10.8-6.2 16.1-9.3.3-.2.7-.7 1.3-.3v9.9c0 2.7 0 5.5.2 8.2.2 2.8 2.4 5 5.2 5.3 2.7.3 5.4-1.3 6.3-4 .4-1.1.4-2.2.4-3.4-.1-7.4-.1-14.7-.2-22.1 0-.9.2-1.4 1-1.9 10-5.7 19.9-11.5 29.9-17.2.3-.2.6-.6 1.1-.2v34.9c0 1.4-.5 2-1.6 2.6-6.5 3.6-12.9 7.3-19.4 10.9-2 1.1-3.4 2.7-3.6 5.1-.2 2.4.8 4.3 2.8 5.5 2.1 1.4 4.3 1.2 6.5 0 4.7-2.6 9.3-5.3 14-7.9.4-.2.7-.7 1.3-.3v2.7c0 5.9-.1 11.8.1 17.6.1 4.4 4.4 7 8.2 5.3 2.7-1.2 3.7-3.4 3.7-6.2v-18.2c0-.5-.2-1 .2-1.5.4.2.9.5 1.3.7 4.5 2.5 9 5.1 13.5 7.7 2.2 1.3 4.4 1.5 6.6.1 4-2.5 3.6-8-.7-10.5-6.5-3.7-13.1-7.4-19.6-11.1-1-.6-1.4-1.2-1.4-2.4.1-11.2 0-22.5 0-33.7 0-.5-.2-1 .2-1.5.2.1.3.1.5.2 10.2 5.9 20.3 11.7 30.5 17.6.7.4.9.9.9 1.6-.1 2.3 0 4.6-.1 6.9-.1 5.5-.2 11-.2 16.4 0 3.8 2.6 6.3 6 6.3s5.8-2.6 5.9-6.2c.1-2.6.1-5.3.1-7.9V225v-.3c.1 0 .1.1.2.1.7.4 1.1.6 1.6.9 5.1 3 10.3 5.9 15.4 8.9 1.3.8 2.7 1.3 4.2 1.2 2.7-.3 4.8-2.2 5.4-4.8.5-2.4-.6-5-3-6.4-5.4-3.1-10.7-6.2-16.1-9.3-.5-.3-.9-.6-1.5-.9.7-.4 1.2-.8 1.8-1.1l13.2-7.8c2.6-1.6 3.7-4 3.1-6.6-1-4.2-5.3-5.9-9.3-3.6-6.5 3.8-13.1 7.7-19.6 11.6-1 .6-1.7.5-2.6 0-9.7-5.6-19.4-11.2-29.1-16.9-.5-.3-1.1-.4-1.3-1 .1-.1.3-.2.4-.3 10.2-5.9 20.3-11.7 30.5-17.6.8-.5 1.3-.3 2 .1 6.5 3.8 13 7.6 19.4 11.5 1.5.9 3.1 1.5 4.9 1.2 2.5-.5 4.4-2.4 4.9-4.9.4-2.4-.7-4.8-3.1-6.2-4.2-2.5-8.4-5-12.7-7.5-.8-.5-1.6-.9-2.5-1.5h-.1c.7-.4 1.2-.7 1.6-1 5.2-3 10.4-6 15.5-9 2-1.2 3.4-2.8 3.5-5.1.1-2.3-.8-4.1-2.7-5.4-2.1-1.4-4.3-1.3-6.5-.1-5.3 3-10.5 6.1-15.8 9.1-.5.3-1 .8-1.8.7v-5.1c-.1-4.3-.1-8.7-.3-13-.1-2.8-2.4-5-5.1-5.3-2.7-.4-5.4 1.3-6.3 3.9-.4 1.1-.4 2.2-.4 3.4.1 7.3.1 14.6.2 21.9 0 1.1-.3 1.7-1.3 2.3-9.8 5.6-19.6 11.2-29.3 16.9-.4.2-.8.7-1.4.5 0-.2-.1-.3-.1-.5v-35.1c0-1 .5-1.4 1.2-1.8 6.5-3.6 12.9-7.3 19.3-10.9 1-.6 2-1.1 2.7-2.1 1.7-2.3 1.7-5.4-.1-7.6-1.8-2.2-4.9-2.7-7.6-1.2-3.6 1.9-7.1 4-10.6 5.9-1.5.9-3.1 1.7-4.9 2.7h-.1v-.1-1.9c0-5.7-.1-11.3 0-17 .1-3.7-1.1-6.3-4.6-7.6H178c-2.9 1.1-4.2 3.7-4.1 7.4z"/></g></g></svg><svg version="1.1" id="summer" fill="#ffa043" x="0" y="0" viewBox="0 0 355 378" xml:space="preserve" xmlns="http://www.w3.org/2000/svg"><style>.fst0{fill:#ffa043}</style><path class="fst0" d="M177.1 105c-46.4-.1-84.1 37.7-84.1 84 0 46.2 37.7 83.8 83.9 83.9 46.3.1 84.1-37.7 84.1-84-.1-46.2-37.7-83.8-83.9-83.9zM165 68c0 7.6 5 13 11.9 13s12-5.3 12.1-12.9v-46c0-7.6-5-13-11.9-13-7 0-12 5.3-12.1 12.9v46zM69 188.8c-.1-6.8-5.4-11.8-12.8-11.8H9.8c-7.5 0-12.9 5.2-12.8 12.1.1 6.8 5.4 11.8 12.8 11.8h46.4c7.5 0 12.9-5.1 12.8-12.1zM344.2 177h-46.4c-7.5 0-12.9 5.2-12.8 12.1.1 6.8 5.4 11.8 12.8 11.8h46.4c7.5 0 12.9-5.2 12.8-12.2-.2-6.6-5.5-11.7-12.8-11.7zM189 309.8c0-7.5-5.2-12.9-12.1-12.8-6.8.1-11.8 5.4-11.8 12.7v46.4c0 7.5 5.2 12.9 12.1 12.8 6.8-.1 11.8-5.4 11.8-12.8v-23.2-23.1zM84.9 264.4c-9.4 8.9-18.5 18.1-27.5 27.5-3.4 3.5-3.6 8.2-1.4 12.6s5.9 6.6 10.8 6.7c2.7 0 5.4-.7 7.3-2.5 9.3-9.1 18.5-18.1 27.5-27.5 4.1-4.3 3.4-11.4-.7-15.7-4.3-4.4-11.6-5.3-16-1.1zM270.4 265.5c-5.1-5-12.3-4.9-17.1-.1-4.7 4.8-4.7 12 .3 17.1 8.3 8.4 16.7 16.8 25.1 25.1 2.4 2.4 5.3 3.7 9.7 3.6 4.1-.2 7.9-2.6 9.8-7.2 2-4.8 1.2-9.4-2.5-13.1-8.3-8.6-16.8-17-25.3-25.4zM83.5 112.5c5.1 5 12.3 5 17.1.2 4.8-4.7 4.8-12-.2-17.1-8.3-8.5-16.7-16.8-25.1-25.1-2.4-2.4-5.3-3.7-9.7-3.7-4.1.2-7.9 2.5-9.9 7.2-2.1 4.9-1.2 9.6 2.6 13.4 8.5 8.4 16.8 16.8 25.2 25.1zM270.4 112.5c8.6-8.4 17-16.9 25.4-25.4 2.3-2.3 3.5-5.1 3.5-8.4 0-4.7-2.8-9.1-7.1-11-4.5-2-9.6-1.1-13.4 2.6-8.4 8.3-16.8 16.7-25.1 25.1-5 5.1-5 12.3-.3 17.1 4.6 4.9 11.9 5 17 0z"/></svg><svg version="1.1" id="winter" fill="#5795de" x="0" y="0" viewBox="0 0 355 378" xml:space="preserve" xmlns="http://www.w3.org/2000/svg"><style>.gst0{}</style><path class="gst0" d="M227.6 224.9c.1-.1.1-.2.2-.2-.1 0-.1-.1-.2-.1v.3zM233.8 163.4s0-.1 0 0c0-.1 0-.1 0 0zM183.8 127.5s-.1 0 0 0c-.1 0-.1.1 0 0-.1.1 0 .1 0 0z"/><path class="gst0" d="M171.7 108.7c.2 5.8 0 11.6 0 17.5 0 .4.3.9-.3 1.3-.5-.3-1-.5-1.5-.8-4.5-2.6-9-5.1-13.5-7.6-3.5-1.9-7.3-.7-8.7 2.8-1.2 3-.1 6 3.1 7.8 6.5 3.7 13.1 7.4 19.6 11.1.9.5 1.4 1.1 1.4 2.2-.1 11.3-.1 22.6 0 33.9 0 1.6-.3 1.6-1.5.8-9.7-5.7-19.5-11.3-29.3-16.9-1-.6-1.3-1.2-1.3-2.3.1-7.4.2-14.7.2-22.1 0-1.9-.2-3.8-1.6-5.2-1.8-1.8-3.9-2.4-6.3-1.6-2.4.9-3.9 2.6-4 5.2-.2 5.5-.2 11-.3 16.4 0 .5.2 1.1-.2 1.7-2.8-1.6-5.5-3.2-8.2-4.7l-9.3-5.4c-3.7-2-7.9-.2-8.9 3.8-.6 2.7.6 5.2 3.4 6.8 5.2 3 10.5 6 15.7 9.1.4.3 1 .4 1.3 1-.6.3-1 .6-1.5.9-4.5 2.6-8.9 5.2-13.4 7.9-2.6 1.6-3.7 4-3.1 6.6 1 4.2 5.3 5.9 9.3 3.6 6.5-3.8 13.1-7.7 19.6-11.6.9-.5 1.5-.6 2.4 0 9.8 5.7 19.7 11.4 29.6 17.1.4.2.9.3 1 .9-10.3 6-20.7 11.9-31 18-.8.5-1.3.1-1.8-.3-6.5-3.8-13-7.6-19.4-11.4-1.6-.9-3.2-1.6-5-1.1-2.6.6-4.1 2.3-4.7 4.9-.5 2.3.7 4.8 3.1 6.2 4.6 2.8 9.2 5.5 13.8 8.2.4.2 1 .3 1.1 1l-1.5.9c-5.2 3-10.5 6-15.7 9.1-2.7 1.6-3.9 4.1-3.2 6.7 1 4.1 5.3 5.8 9.2 3.6 5.4-3.1 10.8-6.2 16.1-9.3.3-.2.7-.7 1.3-.3v9.9c0 2.7 0 5.5.2 8.2.2 2.8 2.4 5 5.2 5.3 2.7.3 5.4-1.3 6.3-4 .4-1.1.4-2.2.4-3.4-.1-7.4-.1-14.7-.2-22.1 0-.9.2-1.4 1-1.9 10-5.7 19.9-11.5 29.9-17.2.3-.2.6-.6 1.1-.2v34.9c0 1.4-.5 2-1.6 2.6-6.5 3.6-12.9 7.3-19.4 10.9-2 1.1-3.4 2.7-3.6 5.1-.2 2.4.8 4.3 2.8 5.5 2.1 1.4 4.3 1.2 6.5 0 4.7-2.6 9.3-5.3 14-7.9.4-.2.7-.7 1.3-.3v2.7c0 5.9-.1 11.8.1 17.6.1 4.4 4.4 7 8.2 5.3 2.7-1.2 3.7-3.4 3.7-6.2v-18.2c0-.5-.2-1 .2-1.5.4.2.9.5 1.3.7 4.5 2.5 9 5.1 13.5 7.7 2.2 1.3 4.4 1.5 6.6.1 4-2.5 3.6-8-.7-10.5-6.5-3.7-13.1-7.4-19.6-11.1-1-.6-1.4-1.2-1.4-2.4.1-11.2 0-22.5 0-33.7 0-.5-.2-1 .2-1.5.2.1.3.1.5.2 10.2 5.9 20.3 11.7 30.5 17.6.7.4.9.9.9 1.6-.1 2.3 0 4.6-.1 6.9-.1 5.5-.2 11-.2 16.4 0 3.8 2.6 6.3 6 6.3s5.8-2.6 5.9-6.2c.1-2.6.1-5.3.1-7.9V225v-.3c.1 0 .1.1.2.1.7.4 1.1.6 1.6.9 5.1 3 10.3 5.9 15.4 8.9 1.3.8 2.7 1.3 4.2 1.2 2.7-.3 4.8-2.2 5.4-4.8.5-2.4-.6-5-3-6.4-5.4-3.1-10.7-6.2-16.1-9.3-.5-.3-.9-.6-1.5-.9.7-.4 1.2-.8 1.8-1.1l13.2-7.8c2.6-1.6 3.7-4 3.1-6.6-1-4.2-5.3-5.9-9.3-3.6-6.5 3.8-13.1 7.7-19.6 11.6-1 .6-1.7.5-2.6 0-9.7-5.6-19.4-11.2-29.1-16.9-.5-.3-1.1-.4-1.3-1 .1-.1.3-.2.4-.3 10.2-5.9 20.3-11.7 30.5-17.6.8-.5 1.3-.3 2 .1 6.5 3.8 13 7.6 19.4 11.5 1.5.9 3.1 1.5 4.9 1.2 2.5-.5 4.4-2.4 4.9-4.9.4-2.4-.7-4.8-3.1-6.2-4.2-2.5-8.4-5-12.7-7.5-.8-.5-1.6-.9-2.5-1.5h-.1c.7-.4 1.2-.7 1.6-1 5.2-3 10.4-6 15.5-9 2-1.2 3.4-2.8 3.5-5.1.1-2.3-.8-4.1-2.7-5.4-2.1-1.4-4.3-1.3-6.5-.1-5.3 3-10.5 6.1-15.8 9.1-.5.3-1 .8-1.8.7v-5.1c-.1-4.3-.1-8.7-.3-13-.1-2.8-2.4-5-5.1-5.3-2.7-.4-5.4 1.3-6.3 3.9-.4 1.1-.4 2.2-.4 3.4.1 7.3.1 14.6.2 21.9 0 1.1-.3 1.7-1.3 2.3-9.8 5.6-19.6 11.2-29.3 16.9-.4.2-.8.7-1.4.5 0-.2-.1-.3-.1-.5v-35.1c0-1 .5-1.4 1.2-1.8 6.5-3.6 12.9-7.3 19.3-10.9 1-.6 2-1.1 2.7-2.1 1.7-2.3 1.7-5.4-.1-7.6-1.8-2.2-4.9-2.7-7.6-1.2-3.6 1.9-7.1 4-10.6 5.9-1.5.9-3.1 1.7-4.9 2.7h-.1v-.1-1.9c0-5.7-.1-11.3 0-17 .1-3.7-1.1-6.3-4.6-7.6h-2.7c-2.9 1.1-4.2 3.7-4.1 7.4z"/></svg></svg>